<svg height='300px' width='300px'  fill="#000000" xmlns="http://www.w3.org/2000/svg" xmlns:xlink="http://www.w3.org/1999/xlink" xml:space="preserve" version="1.1" style="shape-rendering:geometricPrecision;text-rendering:geometricPrecision;image-rendering:optimizeQuality;" viewBox="0 0 236 122" x="0px" y="0px" fill-rule="evenodd" clip-rule="evenodd"><defs><style type="text/css">
   
    .fil0 {fill:#000000}
   
  </style></defs><g><path class="fil0" d="M114 0l44 65 24 -37 24 36 10 8 20 36 -40 0 15 6 -82 -3 -34 11 -5 -12 -76 5 13 -7 -27 0 13 -24 6 -5 36 -54 21 32 38 -57zm69 38l-2 7 -4 -1 -15 25 9 7 15 21 -10 -26 7 0 -6 -7 10 1 -7 -13 13 1 -10 -15zm-128 -6l-33 50 -3 17 10 -16 8 0 6 -14 5 8 2 -13 11 -10 -13 -3 10 -8 -3 -11zm58 -22l-44 64 4 15 5 -12 10 0 8 -8 20 -1 -3 -11 25 8 -18 -26 -22 10 19 -25 -4 -14z"></path></g></svg>