<svg height='300px' width='300px'  fill="#000000" xmlns="http://www.w3.org/2000/svg" xmlns:xlink="http://www.w3.org/1999/xlink" version="1.1" x="0px" y="0px" viewBox="0 0 100 100" style="enable-background:new 0 0 100 100;" xml:space="preserve"><g><path d="M92,19.8c-0.3-0.5-0.9-0.7-1.3-0.7c-1-0.2-2.3,0.2-3.4,0.9l-9.6,6.8c-0.2,0.2-0.5,0.2-0.8,0L61.4,16.5   c-1.3-0.8-2.3-1.5-3.2-1.7c-0.4-0.1-0.8,0-1.2,0.2l-0.8,0.6L70,31.4c0.1,0.1,0.2,0.3,0.2,0.5c0,0.2-0.1,0.4-0.2,0.5L56.2,43.5   c-0.2,0.2-0.4,0.2-0.7,0.1l-7.2-2.9l-0.3-0.1c-0.4-0.2-0.8-0.3-1.1-0.4l0,0c-0.3-0.1-0.7,0-0.9,0.2l-0.2,0.2L52,46l0,0   c0.3,0.2,0.3,0.7,0.1,1l-2.6,3l3.7-1.4c0.1,0,0.2,0,0.3,0l0,0c0.2,0,0.4,0.2,0.5,0.4l2.9,7.5l0.2-0.1c0.6-0.4,0.6-0.9,0.5-2   c0-0.1,0-0.2,0-0.3l-0.4-7.7c0-0.2,0.1-0.5,0.3-0.6l15-9.1c0.2-0.1,0.3-0.1,0.5-0.1c0.2,0,0.3,0.2,0.4,0.3l10.3,18.4   c0.2-0.1,0.5-0.3,0.8-0.6c1-0.8,0.8-1.8,0.3-3.8c-0.1-0.3-0.1-0.5-0.2-0.8l-4.5-18.3c-0.1-0.3,0-0.6,0.3-0.7l9.8-6.9   C92,23,92.8,21,92,19.8z"></path><path d="M59.4,54.2c0.1,1.2,0.1,2.5-1.2,3.5l-1.9,1.4l-3.4-8.6l-8.7,3.2l6-7l-7.1-6.1l1.9-1.4c0.6-0.5,1.4-0.7,2.2-0.5   c0.4,0.1,0.9,0.3,1.4,0.5l6.9,2.8l9-7.3c-0.6-4.9-4.7-8.6-9.8-8.6h-1.8c0,0,0,0,0-0.1V13.5c0-2.5-2-4.5-4.5-4.5H23.8   c-2.5,0-4.5,2-4.5,4.5v12.3c0,0,0,0,0,0.1h-1.8c-5.4,0-9.8,4.4-9.8,9.8v41.8c0,4.8,3.5,8.8,8,9.7c0,0.1,0,0.1,0,0.2   c0,4.8,7.1,4.8,7.1,0h26.7c0,4.8,7.1,4.8,7.1,0c0-0.1,0-0.1,0-0.2c4.6-0.8,8-4.8,8-9.7V43.4l-5.6,3.4L59.4,54.2z M22.8,13.5   c0-0.5,0.4-1,1-1h24.8c0.5,0,1,0.4,1,1v12.3c0,0,0,0,0,0.1H22.8c0,0,0,0,0-0.1V13.5z M20.3,69.1l19.5-16.8c0.3-0.2,0.7-0.2,0.9,0.1   c0.2,0.3,0.2,0.7-0.1,0.9L21.1,70c-0.3,0.2-0.7,0.2-0.9-0.1C20,69.7,20,69.3,20.3,69.1z M15.6,78.8c-0.3,0.2-0.7,0.2-0.9-0.1   c-0.2-0.3-0.2-0.7,0.1-0.9L42,54.4c0.3-0.2,0.7-0.2,0.9,0.1c0.2,0.3,0.2,0.7-0.1,0.9L15.6,78.8z M45,57.6L25.5,74.4   c-0.3,0.2-0.7,0.2-0.9-0.1c-0.2-0.3-0.2-0.7,0.1-0.9l19.5-16.8c0.3-0.2,0.7-0.2,0.9,0.1C45.3,57,45.2,57.4,45,57.6z"></path></g></svg>